<svg xmlns="http://www.w3.org/2000/svg" version="1.1" xmlns:xlink="http://www.w3.org/1999/xlink" xmlns:svgjs="http://svgjs.dev/svgjs" viewBox="0 0 800 800"><defs><linearGradient x1="50%" y1="0%" x2="50%" y2="100%" id="gggyrate-grad"><stop stop-color="#cbd5e1" stop-opacity="1" offset="0%"></stop><stop stop-color="#ff8587" stop-opacity="1" offset="100%"></stop></linearGradient></defs><g stroke-width="2" stroke="url(#gggyrate-grad)" fill="none"><path d="M372.05631645215544 -3.0237983790711382C389.34788671583897 -13.005293043240101 410.6521743193173 -13.005293043240101 427.9437445830008 -3.021004007664601L735.0563396476213 174.29024485166133C752.3479099113048 184.27173951583035 763.0000537130439 202.72297391322888 763.0000537130439 222.6887576129734V577.3112553316254C763.0000537130439 597.2770390313699 752.3479099113048 615.7282734287685 735.0563396476213 625.7125624643439L427.9437445830008 803.0238113236699C410.6521743193173 813.0053059878387 389.34788671583897 813.0053059878387 372.05631645215544 803.0210169522634L64.94372138753494 625.7097680929375C47.65215112385147 615.7282734287685 37.00000732211237 597.2770390313699 37.00000732211237 577.3112553316254V222.6887576129734C37.00000732211237 202.72297391322888 47.65215112385147 184.27173951583035 64.94372138753494 174.2874504802549L372.05631645215544 -3.0237983790711382Z " transform="rotate(44, 400, 400)" opacity="0.05"></path><path d="M373.32648527331116 15.295440214686323C389.8320750704635 5.767649853434165 410.1679859646928 5.767649853434165 426.6735757618451 15.2981075692108L719.8265074144375 184.54975420765828C736.3320972115899 194.07754456891053 746.5000526587046 211.69008649370005 746.5000526587046 230.74833457072896V569.2516278476239C746.5000526587046 588.3098759246528 736.3320972115899 605.9224178494424 719.8265074144375 615.452875565219L426.6735757618451 784.7045222036663C410.1679859646928 794.2323125649186 389.8320750704635 794.2323125649186 373.32648527331116 784.7018548491419L80.17355362071874 615.4502082106945C63.66796382356631 605.9224178494424 53.50000837645172 588.3098759246528 53.50000837645172 569.2516278476239V230.74833457072896C53.50000837645172 211.69008649370005 63.66796382356631 194.07754456891053 80.17355362071874 184.54708685313392L373.32648527331116 15.295440214686323Z " transform="rotate(42, 400, 400)" opacity="0.10"></path><path d="M374.59665409446666 33.61472458481103C390.316263425088 24.540638526475618 409.68379761006827 24.540638526475618 425.4034069406896 33.61726492245333L704.5966751812537 194.80930934002242C720.3162845118751 203.88339539835783 730.0000516043651 220.6572448505383 730.0000516043651 238.80795730485158V561.1920461399895C730.0000516043651 579.3427585943028 720.3162845118751 596.1166080464833 704.5966751812537 605.1932344424611L425.4034069406896 766.3852788600301C409.68379761006827 775.4593649183655 390.316263425088 775.4593649183655 374.59665409446666 766.3827385223879L95.40338585390253 605.1906941048188C79.68377652328115 596.1166080464833 70.00000943079107 579.3427585943028 70.00000943079107 561.1920461399895V238.80795730485158C70.00000943079107 220.6572448505383 79.68377652328115 203.88339539835783 95.40338585390253 194.80676900238012L374.59665409446666 33.61472458481103Z " transform="rotate(40, 400, 400)" opacity="0.14"></path><path d="M375.86682291562227 51.93397843735761C390.8004517797125 43.31359668193895 409.19960925544376 43.31359668193895 424.133238119534 51.93639175811779L689.3668429480699 205.06883395480838C704.3004718121601 213.68921571022702 713.5000505500258 229.62437268979852 713.5000505500258 246.86754952139609V553.1324339147773C713.5000505500258 570.3756107463748 704.3004718121601 586.3107677259463 689.3668429480699 594.9335628021252L424.133238119534 748.0660049988157C409.19960925544376 756.6863867542344 390.8004517797125 756.6863867542344 375.86682291562227 748.0635916780556L110.63321808708628 594.9311494813651C95.69958922299605 586.3107677259463 86.50001048513042 570.3756107463748 86.50001048513042 553.1324339147773V246.86754952139609C86.50001048513042 229.62437268979852 95.69958922299605 213.68921571022702 110.63321808708628 205.06642063404826L375.86682291562227 51.93397843735761Z " transform="rotate(38, 400, 400)" opacity="0.19"></path><path d="M377.1369917367779 70.25323228990413C391.284640134337 62.086554837402275 408.71542090081925 62.086554837402275 422.8630692983784 70.25551859378226L674.1370107148862 215.32835856959434C688.2846591124454 223.49503602209626 697.0000494956864 238.59150052905875 697.0000494956864 254.92714173794064V545.072821689565C697.0000494956864 561.4084628984468 688.2846591124454 576.5049274054093 674.1370107148862 584.6738911617892L422.8630692983784 729.7467311376013C408.71542090081925 737.9134085901032 391.284640134337 737.9134085901032 377.1369917367779 729.7444448337234L125.86305032027008 584.6716048579111C111.7154019227109 576.5049274054093 103.00001153946977 561.4084628984468 103.00001153946977 545.072821689565V254.92714173794064C103.00001153946977 238.59150052905875 111.7154019227109 223.49503602209626 125.86305032027008 215.32607226571633L377.1369917367779 70.25323228990413Z " transform="rotate(36, 400, 400)" opacity="0.23"></path><path d="M378.40716055793337 88.57251666002884C391.7688284889615 80.85954351044373 408.23123254619475 80.85954351044373 421.5929004772229 88.57467594702479L658.9071784817024 225.58791370195854C672.2688464127306 233.30088685154362 680.5000484413472 247.55865888589705 680.5000484413472 262.9867644720633V537.0132399819307C680.5000484413472 552.441345568097 672.2688464127306 566.6991176024503 658.9071784817024 574.4142500390315L421.5929004772229 711.4274877939652C408.23123254619475 719.1404609435502 391.7688284889615 719.1404609435502 378.40716055793337 711.4253285069692L141.09288255345388 574.4120907520355C127.73121462242574 566.6991176024503 119.50001259380912 552.441345568097 119.50001259380912 537.0132399819307V262.9867644720633C119.50001259380912 247.55865888589705 127.73121462242574 233.30088685154362 141.09288255345388 225.5857544149626L378.40716055793337 88.57251666002884Z " transform="rotate(34, 400, 400)" opacity="0.28"></path><path d="M379.677329379089 106.89177051257536C392.253016843586 99.63250166590706 407.74704419157024 99.63250166590706 420.3227316560673 106.89380278268925L643.6773462485187 235.8474383167445C656.2530337130157 243.1067071634128 664.0000473870078 256.5257867251572 664.0000473870078 271.04635668860783V528.9536277567183C664.0000473870078 543.4741977201688 656.2530337130157 556.8932772819132 643.6773462485187 564.1545783986953L420.3227316560673 693.1082139327507C407.74704419157024 700.367482779419 392.253016843586 700.367482779419 379.677329379089 693.1061816626369L156.32271478663762 564.1525461285817C143.74702732214058 556.8932772819132 136.00001364814847 543.4741977201688 136.00001364814847 528.9536277567183V271.04635668860783C136.00001364814847 256.5257867251572 143.74702732214058 243.1067071634128 156.32271478663762 235.84540604663067L379.677329379089 106.89177051257536Z " transform="rotate(32, 400, 400)" opacity="0.32"></path><path d="M380.94748294145546 125.21105488270007C392.73718993942146 118.40549033894851 407.26284057815667 118.40549033894851 419.0525475761226 125.21296013593178L628.4474987565458 246.1069934491086C640.2372057545117 252.91255799286017 647.5000310738794 265.4929450819956 647.5000310738794 279.10597942273046V520.8940460490841C647.5000310738794 534.507080389819 640.2372057545117 547.0874674789543 628.4474987565458 553.8949372759375L419.0525475761226 674.7889705891145C407.26284057815667 681.594535132866 392.73718993942146 681.594535132866 380.94748294145546 674.7870653358827L171.55253176103236 553.8930320227059C159.76282476306636 547.0874674789543 152.49999944369875 534.507080389819 152.49999944369875 520.8940460490841V279.10597942273046C152.49999944369875 265.4929450819956 159.76282476306636 252.91255799286017 171.55253176103236 246.10508819587687L380.94748294145546 125.21105488270007Z " transform="rotate(30, 400, 400)" opacity="0.37"></path><path d="M382.21763650382195 143.53030873524665C393.2213630352569 137.17844849441184 406.7786369647431 137.17844849441184 417.78236349617805 143.53208697159624L613.2176512645729 256.3665180638946C624.2213777960078 262.7183783047294 631.0000147607509 274.46007292125574 631.0000147607509 287.165571639275V512.8344338238717C631.0000147607509 525.539932541891 624.2213777960078 537.2816271584173 613.2176512645729 543.6352656356016L417.78236349617805 656.4696967279C406.7786369647431 662.8215569687349 393.2213630352569 662.8215569687349 382.21763650382195 656.4679184915504L186.7823487354271 543.6334873992521C175.77862220399214 537.2816271584173 168.99998523924904 525.539932541891 168.99998523924904 512.8344338238717V287.165571639275C168.99998523924904 274.46007292125574 175.77862220399214 262.7183783047294 186.7823487354271 256.364739827545L382.21763650382195 143.53030873524665Z " transform="rotate(28, 400, 400)" opacity="0.41"></path><path d="M383.48780532497756 161.84956258779317C393.7055513898814 155.95140664987517 406.2944486101186 155.95140664987517 416.51219467502244 161.8512138072607L597.9878190313891 266.62604267868056C608.205565096293 272.5241986165986 614.5000137064116 283.4272007605159 614.5000137064116 295.2251638558196V504.7748215986593C614.5000137064116 516.5727846939628 608.205565096293 527.4757868378802 597.9878190313891 533.3755939952657L416.51219467502244 638.1504228666856C406.2944486101186 644.0485788046037 393.7055513898814 644.0485788046037 383.48780532497756 638.1487716472182L202.01218096861083 533.3739427757982C191.79443490370699 527.4757868378802 185.4999862935884 516.5727846939628 185.4999862935884 504.7748215986593V295.2251638558196C185.4999862935884 283.4272007605159 191.79443490370699 272.5241986165986 202.01218096861083 266.62439145921314L383.48780532497756 161.84956258779317Z " transform="rotate(26, 400, 400)" opacity="0.46"></path><path d="M384.75797414613317 180.16881644033975C394.1897397445059 174.7243648053385 405.8102602554941 174.7243648053385 415.24202585386683 180.1703406429251L582.7579867982054 276.8855672934666C592.1897523965781 282.3300189284678 598.0000126520722 292.39432859977614 598.0000126520722 303.2847560723641V496.7152093734469C598.0000126520722 507.6056368460348 592.1897523965781 517.6699465173431 582.7579867982054 523.1159223549298L415.24202585386683 619.8311490054712C405.8102602554941 625.2756006404725 394.1897397445059 625.2756006404725 384.75797414613317 619.8296248028859L217.24201320179463 523.1143981523444C207.81024760342183 517.6699465173431 201.99998734792774 507.6056368460348 201.99998734792774 496.7152093734469V303.2847560723641C201.99998734792774 292.39432859977614 207.81024760342183 282.3300189284678 217.24201320179463 276.8840430908812L384.75797414613317 180.16881644033975Z " transform="rotate(24, 400, 400)" opacity="0.50"></path><path d="M386.02814296728866 198.48808555167534C394.6739280991304 193.4973382195909 405.3260719008696 193.4973382195909 413.97185703271134 198.48948273737864L567.5281545650216 287.1451071670416C576.1739396968633 292.13585449912614 581.500011597733 301.3614716978254 581.500011597733 311.34436354769764V488.6556124070237C581.500011597733 498.6385042568959 576.1739396968633 507.8641214555952 567.5281545650216 512.856265973383L413.97185703271134 601.5118904030459C405.3260719008696 606.5026377351303 394.6739280991304 606.5026377351303 386.02814296728866 601.5104932173426L232.47184543497843 512.8548687876796C223.82606030313667 507.8641214555952 218.4999884022671 498.6385042568959 218.4999884022671 488.6556124070237V311.34436354769764C218.4999884022671 301.3614716978254 223.82606030313667 292.13585449912614 232.47184543497843 287.14370998133836L386.02814296728866 198.48808555167534Z " transform="rotate(22, 400, 400)" opacity="0.55"></path><path d="M387.29831178844427 216.80735466301098C395.15811645375493 212.27031163384328 404.84188354624507 212.27031163384328 412.70168821155573 216.80862483183216L552.2983223318378 297.4046470406167C560.1581269971484 301.9416900697844 565.0000105433935 310.3286147958746 565.0000105433935 319.40397102303126V480.59601544060024C565.0000105433935 489.67137166775683 560.1581269971484 498.05829639384706 552.2983223318378 502.596609591836L412.70168821155573 583.1926318006206C404.84188354624507 587.7296748297882 395.15811645375493 587.7296748297882 387.29831178844427 583.1913616317994L247.70167766816218 502.5953394230148C239.84187300285151 498.05829639384706 234.99998945660644 489.67137166775683 234.99998945660644 480.59601544060024V319.40397102303126C234.99998945660644 310.3286147958746 239.84187300285151 301.9416900697844 247.70167766816218 297.40337687179556L387.29831178844427 216.80735466301098Z " transform="rotate(20, 400, 400)" opacity="0.59"></path><path d="M388.5684806095999 235.12662377434663C395.64230480837944 231.04328504809567 404.35769519162056 231.04328504809567 411.4315193904001 235.12776692628563L537.068490098654 307.6641869141917C544.1423142974336 311.74752564044263 548.5000094890542 319.2957578939239 548.5000094890542 327.4635784983649V472.536418474177C548.5000094890542 480.70423907861795 544.1423142974336 488.25247133209916 537.068490098654 492.33695321028915L411.4315193904001 564.8733731981952C404.35769519162056 568.9567119244462 395.64230480837944 568.9567119244462 388.5684806095999 564.8722300462562L262.931509901346 492.33581005835003C255.85768570256636 488.25247133209916 251.49999051094585 480.70423907861795 251.49999051094585 472.536418474177V327.4635784983649C251.49999051094585 319.2957578939239 255.85768570256636 311.74752564044263 262.931509901346 307.6630437622527L388.5684806095999 235.12662377434663Z " transform="rotate(18, 400, 400)" opacity="0.64"></path><path d="M389.8386494307554 253.44587762689315C396.12649316300394 249.816243203559 403.87350683699606 249.816243203559 410.1613505692446 253.4468937619501L521.8386578654703 317.9237115289777C528.1265015977187 321.5533459523119 532.0000084347148 328.2628857331841 532.0000084347148 335.5231707149094V464.47680624896464C532.0000084347148 471.7370912306899 528.1265015977187 478.4466310115621 521.8386578654703 482.07728156995313L410.1613505692446 546.5540993369808C403.87350683699606 550.1837337603149 396.12649316300394 550.1837337603149 389.8386494307554 546.553083201924L278.1613421345298 482.0762654348963C271.8734984022812 478.4466310115621 267.9999915652852 471.7370912306899 267.9999915652852 464.47680624896464V335.5231707149094C267.9999915652852 328.2628857331841 271.8734984022812 321.5533459523119 278.1613421345298 317.9226953939208L389.8386494307554 253.44587762689315Z " transform="rotate(16, 400, 400)" opacity="0.68"></path><path d="M391.108818251911 271.7651467382288C396.61068151762845 268.5892166178114 403.38931848237155 268.5892166178114 408.891181748089 271.7660358564036L506.6088256322864 328.18325140255274C512.1106888980039 331.3591815229702 515.5000073803755 337.2300288312333 515.5000073803755 343.58277819024295V456.4172092825413C515.5000073803755 462.76995864155094 512.1106888980039 468.64080594981414 506.6088256322864 471.8176251884063L408.891181748089 528.2348407345555C403.38931848237155 531.410770854973 396.61068151762845 531.410770854973 391.108818251911 528.2339516163806L293.3911743677135 471.8167360702315C287.88931110199604 468.64080594981414 284.49999261962455 462.76995864155094 284.49999261962455 456.4172092825413V343.58277819024295C284.49999261962455 337.2300288312333 287.88931110199604 331.3591815229702 293.3911743677135 328.182362284378L391.108818251911 271.7651467382288Z " transform="rotate(14, 400, 400)" opacity="0.73"></path><path d="M392.3789870730666 290.0844234789589C397.09486987225296 287.3621976614583 402.90513012774704 287.3621976614583 407.6210129269334 290.0851855802516L491.3789933991027 338.44279890552235C496.09487619828906 341.16502472302295 499.0000063260361 346.19717955867713 499.0000063260361 351.6423932949711V448.3576199455125C499.0000063260361 453.8028336818065 496.09487619828906 458.8349885174606 491.3789933991027 461.55797643625397L407.6210129269334 509.91558976152464C402.90513012774704 512.6378155790253 397.09486987225296 512.6378155790253 392.3789870730666 509.914827660232L308.6210066008973 461.55721433496126C303.90512380171094 458.8349885174606 300.9999936739639 453.8028336818065 300.9999936739639 448.3576199455125V351.6423932949711C300.9999936739639 346.19717955867713 303.90512380171094 341.16502472302295 308.6210066008973 338.44203680422964L392.3789870730666 290.0844234789589Z " transform="rotate(12, 400, 400)" opacity="0.77"></path><path d="M393.64915589422213 308.4036849609C397.57905822687746 306.13516344631614 402.42094177312254 306.13516344631614 406.35084410577787 308.4043200453106L476.1491611659189 348.70233114970284C480.0790634985742 350.9708526642867 482.50000527169675 355.16431502733184 482.50000527169675 359.70199314091013V440.29801534969465C482.50000527169675 444.83569346327295 480.0790634985742 449.02915582631806 476.1491611659189 451.29831242531253L406.35084410577787 491.5963235297048C402.42094177312254 493.86484504428864 397.57905822687746 493.86484504428864 393.64915589422213 491.59568844529423L323.8508388340811 451.29767734090194C319.9209365014258 449.02915582631806 317.49999472830325 444.83569346327295 317.49999472830325 440.29801534969465V359.70199314091013C317.49999472830325 355.16431502733184 319.9209365014258 350.9708526642867 323.8508388340811 348.7016960652923L393.64915589422213 308.4036849609Z " transform="rotate(10, 400, 400)" opacity="0.82"></path><path d="M394.9193247153777 326.72294644284113C398.06324658150197 324.90812923117403 401.93675341849803 324.90812923117403 405.0806752846223 326.7234545103696L460.91932893273514 358.9618633938834C464.06325079885937 360.7766806055505 466.0000042173574 364.13145049598654 466.0000042173574 367.7615929868492V432.23841075387685C466.0000042173574 435.8685532447395 464.06325079885937 439.2233231351756 460.91932893273514 441.0386484143711L405.0806752846223 473.27705729788494C401.93675341849803 475.091874509552 398.06324658150197 475.091874509552 394.9193247153777 473.2765492303565L339.08067106726486 441.0381403468427C335.93674920114063 439.2233231351756 333.9999957826426 435.8685532447395 333.9999957826426 432.23841075387685V367.7615929868492C333.9999957826426 364.13145049598654 335.93674920114063 360.7766806055505 339.08067106726486 358.9613553263549L394.9193247153777 326.72294644284113Z " transform="rotate(8, 400, 400)" opacity="0.86"></path><path d="M396.1894935365333 345.0422041100849C398.5474349361265 343.68109120133465 401.4525650638735 343.68109120133465 403.8105064634667 345.0425851607313L445.68949669955134 369.2213918233666C448.04743809914453 370.58250473211694 449.50000316301805 373.09858214994404 449.50000316301805 375.821189018091V424.1788023433617C449.50000316301805 426.90140921150874 448.04743809914453 429.41748662933577 445.68949669955134 430.77898058873245L403.8105064634667 454.9577872513678C401.4525650638735 456.3189001601181 398.5474349361265 456.3189001601181 396.1894935365333 454.9574062007215L354.31050330044866 430.7785995380861C351.95256190085547 429.41748662933577 350.49999683698195 426.90140921150874 350.49999683698195 424.1788023433617V375.821189018091C350.49999683698195 373.09858214994404 351.95256190085547 370.58250473211694 354.31050330044866 369.2210107727203L396.1894935365333 345.0422041100849Z " transform="rotate(6, 400, 400)" opacity="0.91"></path><path d="M397.45966235768884 363.36147703611783C399.031623290751 362.4540684302843 400.968376709249 362.4540684302843 402.54033764231116 363.361731069882L430.45966446636754 379.48093551163896C432.0316253994297 380.3883441174725 433.0000021086787 382.06572906269054 433.0000021086787 383.8808003081219V416.11920919163566C433.0000021086787 417.934280437067 432.0316253994297 419.6116653822851 430.45966446636754 420.5193280218828L402.54033764231116 436.63853246363976C400.968376709249 437.54594106947326 399.031623290751 437.54594106947326 397.45966235768884 436.6382784298755L369.54033553363246 420.5190739881186C367.9683746005703 419.6116653822851 366.9999978913213 417.934280437067 366.9999978913213 416.11920919163566V383.8808003081219C366.9999978913213 382.06572906269054 367.9683746005703 380.3883441174725 369.54033553363246 379.4806814778747L397.45966235768884 363.36147703611783Z " transform="rotate(4, 400, 400)" opacity="0.95"></path><path d="M398.72983117884445 381.6807385180589C399.5158116453755 381.2270342151421 400.4841883546245 381.2270342151421 401.27016882115555 381.68086553494106L415.2298322331838 389.74046775581945C416.01581269971484 390.1941720587362 416.50000105433935 391.0328645313453 416.50000105433935 391.9404001540609V408.05960459581786C416.50000105433935 408.9671402185335 416.01581269971484 409.80583269114254 415.2298322331838 410.25966401094144L401.27016882115555 418.3192662318199C400.4841883546245 418.77297053473666 399.5158116453755 418.77297053473666 398.72983117884445 418.31913921493776L384.7701677668162 410.2595369940593C383.98418730028516 409.80583269114254 383.49999894566065 408.9671402185335 383.49999894566065 408.05960459581786V391.9404001540609C383.49999894566065 391.0328645313453 383.98418730028516 390.1941720587362 384.7701677668162 389.7403407389374L398.72983117884445 381.6807385180589Z " transform="rotate(2, 400, 400)" opacity="1.00"></path></g></svg>